<?xml version="1.0" encoding="UTF-8" standalone="no"?>
<svg
   xmlns:osb="http://www.openswatchbook.org/uri/2009/osb"
   xmlns:dc="http://purl.org/dc/elements/1.1/"
   xmlns:cc="http://creativecommons.org/ns#"
   xmlns:rdf="http://www.w3.org/1999/02/22-rdf-syntax-ns#"
   xmlns:svg="http://www.w3.org/2000/svg"
   xmlns="http://www.w3.org/2000/svg"
   xmlns:sodipodi="http://sodipodi.sourceforge.net/DTD/sodipodi-0.dtd"
   xmlns:inkscape="http://www.inkscape.org/namespaces/inkscape"
   width="420mm"
   height="297mm"
   viewBox="0 0 420 297"
   version="1.1"
   id="svg8"
   inkscape:version="1.0.2 (e86c870879, 2021-01-15, custom)"
   sodipodi:docname="corexy.svg"
   inkscape:export-filename="/home/mihai/work/projects/plotter/design/corexy.png"
   inkscape:export-xdpi="96"
   inkscape:export-ydpi="96">
  <defs
     id="defs2">
    <marker
       style="overflow:visible;"
       id="Arrow2Lend"
       refX="0.0"
       refY="0.0"
       orient="auto"
       inkscape:stockid="Arrow2Lend"
       inkscape:isstock="true">
      <path
         transform="scale(1.1) rotate(180) translate(1,0)"
         d="M 8.7185878,4.0337352 L -2.2072895,0.016013256 L 8.7185884,-4.0017078 C 6.9730900,-1.6296469 6.9831476,1.6157441 8.7185878,4.0337352 z "
         style="fill-rule:evenodd;stroke-width:0.625;stroke-linejoin:round;stroke:#ff0000;stroke-opacity:1;fill:#ffffff;fill-opacity:1"
         id="path3349" />
    </marker>
    <linearGradient
       inkscape:collect="always"
       id="linearGradient3176"
       osb:paint="gradient">
      <stop
         style="stop-color:#010000;stop-opacity:1;"
         offset="0"
         id="stop3172" />
      <stop
         style="stop-color:#010000;stop-opacity:0;"
         offset="1"
         id="stop3174" />
    </linearGradient>
    <marker
       style="overflow:visible"
       id="Arrow2Lend-0"
       refX="0"
       refY="0"
       orient="auto"
       inkscape:stockid="Arrow2Lend"
       inkscape:isstock="true">
      <path
         transform="matrix(-1.1,0,0,-1.1,-1.1,0)"
         d="M 8.7185878,4.0337352 -2.2072895,0.01601326 8.7185884,-4.0017078 c -1.7454984,2.3720609 -1.7354408,5.6174519 -6e-7,8.035443 z"
         style="fill:#ffffff;fill-opacity:1;fill-rule:evenodd;stroke:#ff0000;stroke-width:0.625;stroke-linejoin:round;stroke-opacity:1"
         id="path3349-6" />
    </marker>
    <marker
       style="overflow:visible"
       id="Arrow2Lend-6"
       refX="0"
       refY="0"
       orient="auto"
       inkscape:stockid="Arrow2Lend"
       inkscape:isstock="true">
      <path
         transform="matrix(-1.1,0,0,-1.1,-1.1,0)"
         d="M 8.7185878,4.0337352 -2.2072895,0.01601326 8.7185884,-4.0017078 c -1.7454984,2.3720609 -1.7354408,5.6174519 -6e-7,8.035443 z"
         style="fill:#ffffff;fill-opacity:1;fill-rule:evenodd;stroke:#ff0000;stroke-width:0.625;stroke-linejoin:round;stroke-opacity:1"
         id="path3349-1" />
    </marker>
    <marker
       style="overflow:visible"
       id="Arrow2Lend-6-7"
       refX="0"
       refY="0"
       orient="auto"
       inkscape:stockid="Arrow2Lend"
       inkscape:isstock="true">
      <path
         transform="matrix(-1.1,0,0,-1.1,-1.1,0)"
         d="M 8.7185878,4.0337352 -2.2072895,0.01601326 8.7185884,-4.0017078 c -1.7454984,2.3720609 -1.7354408,5.6174519 -6e-7,8.035443 z"
         style="fill:#ffffff;fill-opacity:1;fill-rule:evenodd;stroke:#ff0000;stroke-width:0.625;stroke-linejoin:round;stroke-opacity:1"
         id="path3349-1-9" />
    </marker>
    <marker
       style="overflow:visible"
       id="Arrow2Lend-02"
       refX="0"
       refY="0"
       orient="auto"
       inkscape:stockid="Arrow2Lend"
       inkscape:isstock="true">
      <path
         transform="matrix(-1.1,0,0,-1.1,-1.1,0)"
         d="M 8.7185878,4.0337352 -2.2072895,0.01601326 8.7185884,-4.0017078 c -1.7454984,2.3720609 -1.7354408,5.6174519 -6e-7,8.035443 z"
         style="fill:#ffffff;fill-opacity:1;fill-rule:evenodd;stroke:#ff0000;stroke-width:0.625;stroke-linejoin:round;stroke-opacity:1"
         id="path3349-3" />
    </marker>
    <marker
       style="overflow:visible"
       id="Arrow2Lend-0-7"
       refX="0"
       refY="0"
       orient="auto"
       inkscape:stockid="Arrow2Lend"
       inkscape:isstock="true">
      <path
         transform="matrix(-1.1,0,0,-1.1,-1.1,0)"
         d="M 8.7185878,4.0337352 -2.2072895,0.01601326 8.7185884,-4.0017078 c -1.7454984,2.3720609 -1.7354408,5.6174519 -6e-7,8.035443 z"
         style="fill:#ffffff;fill-opacity:1;fill-rule:evenodd;stroke:#ff0000;stroke-width:0.625;stroke-linejoin:round;stroke-opacity:1"
         id="path3349-6-5" />
    </marker>
    <marker
       style="overflow:visible"
       id="Arrow2Lend-6-9"
       refX="0"
       refY="0"
       orient="auto"
       inkscape:stockid="Arrow2Lend"
       inkscape:isstock="true">
      <path
         transform="matrix(-1.1,0,0,-1.1,-1.1,0)"
         d="M 8.7185878,4.0337352 -2.2072895,0.01601326 8.7185884,-4.0017078 c -1.7454984,2.3720609 -1.7354408,5.6174519 -6e-7,8.035443 z"
         style="fill:#ffffff;fill-opacity:1;fill-rule:evenodd;stroke:#ff0000;stroke-width:0.625;stroke-linejoin:round;stroke-opacity:1"
         id="path3349-1-2" />
    </marker>
    <marker
       style="overflow:visible"
       id="Arrow2Lend-6-7-2"
       refX="0"
       refY="0"
       orient="auto"
       inkscape:stockid="Arrow2Lend"
       inkscape:isstock="true">
      <path
         transform="matrix(-1.1,0,0,-1.1,-1.1,0)"
         d="M 8.7185878,4.0337352 -2.2072895,0.01601326 8.7185884,-4.0017078 c -1.7454984,2.3720609 -1.7354408,5.6174519 -6e-7,8.035443 z"
         style="fill:#ffffff;fill-opacity:1;fill-rule:evenodd;stroke:#ff0000;stroke-width:0.625;stroke-linejoin:round;stroke-opacity:1"
         id="path3349-1-9-8" />
    </marker>
  </defs>
  <sodipodi:namedview
     id="base"
     pagecolor="#ffffff"
     bordercolor="#666666"
     borderopacity="1.0"
     inkscape:pageopacity="0.0"
     inkscape:pageshadow="2"
     inkscape:zoom="0.98994949"
     inkscape:cx="795.80919"
     inkscape:cy="812.32927"
     inkscape:document-units="mm"
     inkscape:current-layer="layer1"
     inkscape:document-rotation="0"
     showgrid="true"
     inkscape:window-width="3840"
     inkscape:window-height="2063"
     inkscape:window-x="0"
     inkscape:window-y="0"
     inkscape:window-maximized="1">
    <inkscape:grid
       type="xygrid"
       id="grid833"
       spacingx="1"
       spacingy="1" />
  </sodipodi:namedview>
  <metadata
     id="metadata5">
    <rdf:RDF>
      <cc:Work
         rdf:about="">
        <dc:format>image/svg+xml</dc:format>
        <dc:type
           rdf:resource="http://purl.org/dc/dcmitype/StillImage" />
        <dc:title></dc:title>
      </cc:Work>
    </rdf:RDF>
  </metadata>
  <g
     inkscape:label="Layer 1"
     inkscape:groupmode="layer"
     id="layer1">
    <path
       id="path3212-7"
       style="fill:none;fill-opacity:1;stroke:#010000;stroke-width:1.23333;stroke-miterlimit:4;stroke-dasharray:none;stroke-dashoffset:0;stroke-opacity:1"
       d="m 29.1713,73.59158 a 18.499912,18.499912 0 0 0 -18.500162,18.50016 18.499912,18.499912 0 0 0 12.413195,17.46974 9.4772767,9.4772767 0 0 1 -5.404837,3.42408 l -0.04444,0.12299 16.082224,-2.89233 -10.546127,-12.48141 -0.07183,0.19896 a 9.4772767,9.4772767 0 0 1 1.985409,5.80377 A 9.4772767,9.4772767 0 0 1 24.999982,105 14.999999,14.999999 0 0 1 14.171182,90.59158 14.999999,14.999999 0 0 1 29.1713,75.59146 Z" />
    <rect
       style="fill:#93ac93;fill-opacity:1;stroke:#010000;stroke-width:0.275599"
       id="rect958-6"
       width="26"
       height="26"
       x="204.36246"
       y="78.120621" />
    <rect
       style="fill:#93ac93;fill-opacity:1;stroke:#010000;stroke-width:0.275599"
       id="rect958"
       width="26"
       height="26"
       x="37.267185"
       y="78.120621" />
    <rect
       style="fill:#93ac93;fill-opacity:1;stroke:#010000;stroke-width:0.264999"
       id="rect956"
       width="43"
       height="10"
       x="109.1713"
       y="17.870657" />
    <rect
       style="fill:#93ac93;fill-opacity:1;stroke:#010000;stroke-width:0.202059"
       id="rect956-2"
       width="25"
       height="10"
       x="119.1713"
       y="7.8706579" />
    <path
       style="fill:none;stroke:#000000;stroke-width:0.818669;stroke-linecap:butt;stroke-linejoin:miter;stroke-miterlimit:4;stroke-dasharray:none;stroke-opacity:1"
       d="m 125.1713,74.59146 v -63"
       id="path1024" />
    <path
       style="fill:none;stroke:#000000;stroke-width:0.818669;stroke-linecap:butt;stroke-linejoin:miter;stroke-miterlimit:4;stroke-dasharray:none;stroke-opacity:1"
       d="m 137.1713,74.59146 v -63"
       id="path1026" />
    <path
       style="fill:none;stroke:#000000;stroke-width:0.861553;stroke-linecap:butt;stroke-linejoin:miter;stroke-miterlimit:4;stroke-dasharray:none;stroke-opacity:1"
       d="m 147.1713,84.59146 h 72"
       id="path1030" />
    <path
       style="fill:none;stroke:#000000;stroke-width:0.824866;stroke-linecap:butt;stroke-linejoin:miter;stroke-miterlimit:4;stroke-dasharray:none;stroke-opacity:1"
       d="m 214.1713,97.59146 h -66"
       id="path1032" />
    <path
       style="fill:none;stroke:#000000;stroke-width:0.821228;stroke-linecap:butt;stroke-linejoin:miter;stroke-miterlimit:4;stroke-dasharray:none;stroke-opacity:1"
       d="m 137.1713,105.59146 v 58"
       id="path1034" />
    <path
       style="fill:none;stroke:#000000;stroke-width:0.821229;stroke-linecap:butt;stroke-linejoin:miter;stroke-miterlimit:4;stroke-dasharray:none;stroke-opacity:1"
       d="m 125.1713,164.59146 v -58"
       id="path1040" />
    <path
       style="fill:none;stroke:#000000;stroke-width:0.795029;stroke-linecap:butt;stroke-linejoin:miter;stroke-miterlimit:4;stroke-dasharray:none;stroke-opacity:1"
       d="m 116.1713,84.59146 h -67"
       id="path1042" />
    <path
       style="fill:none;stroke:#000000;stroke-width:0.758601;stroke-linecap:butt;stroke-linejoin:miter;stroke-miterlimit:4;stroke-dasharray:none;stroke-opacity:1"
       d="m 115.1713,97.59146 h -61"
       id="path1046" />
    <path
       id="path835-6"
       style="fill:#00aa00;fill-opacity:1;stroke:#010000;stroke-width:0.264999"
       d="m 118.1713,95.59146 a 7.9567489,7.9567489 0 0 0 -7.9034,7.95662 7.9567489,7.9567489 0 0 0 7.95714,7.95713 7.9567489,7.9567489 0 0 0 7.95662,-7.95713 7.9567489,7.9567489 0 0 0 -7.95662,-7.95662 7.9567489,7.9567489 0 0 0 -0.0537,0 z m 0.0537,4.9568 a 3,3 0 0 1 2.99982,2.99982 3,3 0 0 1 -2.99982,3.00033 3,3 0 0 1 -3.00033,-3.00033 3,3 0 0 1 3.00033,-2.99982 z" />
    <text
       xml:space="preserve"
       style="font-size:4.23333px;line-height:1.25;font-family:sans-serif;-inkscape-font-specification:sans-serif;letter-spacing:0px;word-spacing:0px;stroke-width:0.264583"
       x="40.306492"
       y="75.019028"
       id="text1050"><tspan
         sodipodi:role="line"
         id="tspan1048"
         x="40.306492"
         y="75.019028"
         style="stroke-width:0.264583">MOTOR 1</tspan></text>
    <text
       xml:space="preserve"
       style="font-size:4.23333px;line-height:1.25;font-family:sans-serif;-inkscape-font-specification:sans-serif;letter-spacing:0px;word-spacing:0px;stroke-width:0.264583"
       x="207.14496"
       y="75.127319"
       id="text1050-1"><tspan
         sodipodi:role="line"
         id="tspan1048-2"
         x="207.14496"
         y="75.127319"
         style="stroke-width:0.264583">MOTOR 2</tspan></text>
    <rect
       style="fill:none;fill-opacity:1;stroke:#010000;stroke-width:1;stroke-miterlimit:4;stroke-dasharray:3, 3;stroke-dashoffset:0;stroke-opacity:1"
       id="rect1076"
       width="55"
       height="51"
       x="104.1713"
       y="65.591461" />
    <path
       id="path835-7"
       style="fill:#00aa00;fill-opacity:1;stroke:#010000;stroke-width:0.264999"
       d="m 144.1713,95.59146 a 7.9567489,7.9567489 0 0 0 -7.9034,7.95662 7.9567489,7.9567489 0 0 0 7.95714,7.95713 7.9567489,7.9567489 0 0 0 7.95662,-7.95713 7.9567489,7.9567489 0 0 0 -7.95662,-7.95662 7.9567489,7.9567489 0 0 0 -0.0537,0 z m 0.0537,4.9568 a 3,3 0 0 1 2.99982,2.99982 3,3 0 0 1 -2.99982,3.00033 3,3 0 0 1 -3.00033,-3.00033 3,3 0 0 1 3.00033,-2.99982 z" />
    <path
       id="path835"
       style="fill:#00aa00;fill-opacity:1;stroke:#010000;stroke-width:0.264999"
       d="m 118.1713,69.59146 a 7.9567489,7.9567489 0 0 0 -7.9034,7.95662 7.9567489,7.9567489 0 0 0 7.95714,7.95714 7.9567489,7.9567489 0 0 0 7.95662,-7.95714 7.9567489,7.9567489 0 0 0 -7.95662,-7.95662 7.9567489,7.9567489 0 0 0 -0.0537,0 z m 0.0537,4.9568 a 3,3 0 0 1 2.99982,2.99982 3,3 0 0 1 -2.99982,3.00033 3,3 0 0 1 -3.00033,-3.00033 3,3 0 0 1 3.00033,-2.99982 z" />
    <path
       id="path835-3"
       style="fill:#00aa00;fill-opacity:1;stroke:#010000;stroke-width:0.264999"
       d="m 144.1713,69.59146 a 7.9567489,7.9567489 0 0 0 -7.90339,7.95662 7.9567489,7.9567489 0 0 0 7.95713,7.95713 7.9567489,7.9567489 0 0 0 7.95662,-7.95713 7.9567489,7.9567489 0 0 0 -7.95662,-7.95662 7.9567489,7.9567489 0 0 0 -0.0537,0 z m 0.0537,4.9568 a 3,3 0 0 1 2.99982,2.99982 3,3 0 0 1 -2.99982,3.00033 3,3 0 0 1 -3.00033,-3.00033 3,3 0 0 1 3.00033,-2.99982 z" />
    <path
       id="path835-7-5-3"
       style="fill:#d40000;fill-opacity:1;stroke:#010000;stroke-width:0.264999"
       d="m 217.30906,83.16383 a 7.9567489,7.9567489 0 0 0 -7.9034,7.95662 7.9567489,7.9567489 0 0 0 7.95714,7.95713 7.9567489,7.9567489 0 0 0 7.95662,-7.95713 7.9567489,7.9567489 0 0 0 -7.95662,-7.95662 7.9567489,7.9567489 0 0 0 -0.0537,0 z m 0.0537,4.9568 a 3,3 0 0 1 2.99982,2.99982 3,3 0 0 1 -2.99982,3.00033 3,3 0 0 1 -3.00033,-3.00033 3,3 0 0 1 3.00033,-2.99982 z" />
    <path
       id="path835-7-5-3-5"
       style="fill:#aa0000;fill-opacity:1;stroke:#010000;stroke-width:0.264999"
       d="m 50.21358,83.16383 a 7.9567489,7.9567489 0 0 0 -7.90345,7.95662 7.9567489,7.9567489 0 0 0 7.95719,7.95713 7.9567489,7.9567489 0 0 0 7.95666,-7.95713 7.9567489,7.9567489 0 0 0 -7.95666,-7.95662 7.9567489,7.9567489 0 0 0 -0.0537,0 z m 0.0537,4.9568 a 3,3 0 0 1 2.99984,2.99982 3,3 0 0 1 -2.99984,3.00033 3,3 0 0 1 -3.00035,-3.00033 3,3 0 0 1 3.00035,-2.99982 z" />
    <path
       id="path835-7-5"
       style="fill:#ffcc00;fill-opacity:1;stroke:#010000;stroke-width:0.264999"
       d="m 131.1176,159.74723 a 7.9567489,7.9567489 0 0 0 -7.9034,7.95662 7.9567489,7.9567489 0 0 0 7.95714,7.95713 7.9567489,7.9567489 0 0 0 7.95662,-7.95713 7.9567489,7.9567489 0 0 0 -7.95662,-7.95662 7.9567489,7.9567489 0 0 0 -0.0537,0 z m 0.0537,4.9568 a 3,3 0 0 1 2.99982,2.99982 3,3 0 0 1 -2.99982,3.00033 3,3 0 0 1 -3.00033,-3.00033 3,3 0 0 1 3.00033,-2.99982 z" />
    <circle
       style="fill:#ff0000;fill-opacity:1;stroke:#010000;stroke-width:0.264999"
       id="path1000"
       cx="126.62902"
       cy="11.717696"
       r="2" />
    <circle
       style="fill:#ff0000;fill-opacity:1;stroke:#010000;stroke-width:0.264999"
       id="path1000-9"
       cx="135.71184"
       cy="11.642684"
       r="2" />
    <path
       id="path3212-7-6"
       style="fill:none;fill-opacity:1;stroke:#010000;stroke-width:1.23333;stroke-miterlimit:4;stroke-dasharray:none;stroke-dashoffset:0;stroke-opacity:1"
       d="M 240,111.99988 A 18.499912,18.499912 0 0 0 258.50016,93.49972 18.499912,18.499912 0 0 0 246.08697,76.02998 9.4772767,9.4772767 0 0 1 251.4918,72.6059 l 0.0444,-0.12299 -16.08222,2.89233 10.54613,12.48141 0.0718,-0.19896 a 9.4772767,9.4772767 0 0 1 -1.98541,-5.80377 9.4772767,9.4772767 0 0 1 0.0848,-1.26246 14.999999,14.999999 0 0 1 10.8288,14.40842 A 14.999999,14.999999 0 0 1 240,110 Z" />
    <path
       style="fill:#ffffff;fill-rule:evenodd;stroke:#ff0000;stroke-width:0.5;stroke-linecap:butt;stroke-linejoin:miter;stroke-miterlimit:4;stroke-dasharray:none;stroke-opacity:1;marker-end:url(#Arrow2Lend)"
       d="m 70.1713,101.12063 h 28"
       id="path3326"
       inkscape:connector-type="polyline"
       inkscape:connector-curvature="0" />
    <path
       style="fill:#ffffff;fill-rule:evenodd;stroke:#ff0000;stroke-width:0.5;stroke-linecap:butt;stroke-linejoin:miter;stroke-miterlimit:4;stroke-dasharray:none;stroke-opacity:1;marker-end:url(#Arrow2Lend-0)"
       d="m 170.1713,101.12063 h 28"
       id="path3326-2"
       inkscape:connector-type="polyline"
       inkscape:connector-curvature="0" />
    <path
       style="fill:#ffffff;fill-rule:evenodd;stroke:#ff0000;stroke-width:0.5;stroke-linecap:butt;stroke-linejoin:miter;stroke-miterlimit:4;stroke-dasharray:none;stroke-opacity:1;marker-end:url(#Arrow2Lend-6)"
       d="m 198.1713,81.062293 h -28"
       id="path3326-8"
       inkscape:connector-type="polyline"
       inkscape:connector-curvature="0" />
    <path
       style="fill:#ffffff;fill-rule:evenodd;stroke:#ff0000;stroke-width:0.5;stroke-linecap:butt;stroke-linejoin:miter;stroke-miterlimit:4;stroke-dasharray:none;stroke-opacity:1;marker-end:url(#Arrow2Lend-6-7)"
       d="m 98.1713,81.062293 h -28"
       id="path3326-8-2"
       inkscape:connector-type="polyline"
       inkscape:connector-curvature="0" />
    <path
       id="path3212-7-9"
       style="fill:none;fill-opacity:1;stroke:#010000;stroke-width:1.23333;stroke-miterlimit:4;stroke-dasharray:none;stroke-dashoffset:0;stroke-opacity:1"
       d="m 182,184.00012 a 18.499912,18.499912 0 0 0 -18.50016,18.50016 18.499912,18.499912 0 0 0 12.41319,17.46974 9.4772767,9.4772767 0 0 1 -5.40483,3.42408 l -0.0444,0.12299 16.08222,-2.89233 -10.54613,-12.48141 -0.0718,0.19896 a 9.4772767,9.4772767 0 0 1 1.98541,5.80377 9.4772767,9.4772767 0 0 1 -0.0847,1.26246 A 14.999999,14.999999 0 0 1 167,201.00012 14.999999,14.999999 0 0 1 182,186 Z" />
    <rect
       style="fill:#93ac93;fill-opacity:1;stroke:#010000;stroke-width:0.275599"
       id="rect958-6-7"
       width="26"
       height="26"
       x="357.19116"
       y="188.52916" />
    <rect
       style="fill:#93ac93;fill-opacity:1;stroke:#010000;stroke-width:0.275599"
       id="rect958-3"
       width="26"
       height="26"
       x="190.09589"
       y="188.52916" />
    <rect
       style="fill:#93ac93;fill-opacity:1;stroke:#010000;stroke-width:0.264999"
       id="rect956-6"
       width="43"
       height="10"
       x="262"
       y="128.27921" />
    <rect
       style="fill:#93ac93;fill-opacity:1;stroke:#010000;stroke-width:0.202059"
       id="rect956-2-1"
       width="25"
       height="10"
       x="272"
       y="118.27921" />
    <path
       style="fill:none;stroke:#000000;stroke-width:0.818669;stroke-linecap:butt;stroke-linejoin:miter;stroke-miterlimit:4;stroke-dasharray:none;stroke-opacity:1"
       d="M 278,185 V 122"
       id="path1024-2" />
    <path
       style="fill:none;stroke:#000000;stroke-width:0.818669;stroke-linecap:butt;stroke-linejoin:miter;stroke-miterlimit:4;stroke-dasharray:none;stroke-opacity:1"
       d="M 290,185 V 122"
       id="path1026-9" />
    <path
       style="fill:none;stroke:#000000;stroke-width:0.861553;stroke-linecap:butt;stroke-linejoin:miter;stroke-miterlimit:4;stroke-dasharray:none;stroke-opacity:1"
       d="m 300,195 h 72"
       id="path1030-3" />
    <path
       style="fill:none;stroke:#000000;stroke-width:0.824866;stroke-linecap:butt;stroke-linejoin:miter;stroke-miterlimit:4;stroke-dasharray:none;stroke-opacity:1"
       d="M 367,208 H 301"
       id="path1032-1" />
    <path
       style="fill:none;stroke:#000000;stroke-width:0.821228;stroke-linecap:butt;stroke-linejoin:miter;stroke-miterlimit:4;stroke-dasharray:none;stroke-opacity:1"
       d="m 290,216 v 58"
       id="path1034-9" />
    <path
       style="fill:none;stroke:#000000;stroke-width:0.821229;stroke-linecap:butt;stroke-linejoin:miter;stroke-miterlimit:4;stroke-dasharray:none;stroke-opacity:1"
       d="M 278,275 V 217"
       id="path1040-4" />
    <path
       style="fill:none;stroke:#000000;stroke-width:0.795029;stroke-linecap:butt;stroke-linejoin:miter;stroke-miterlimit:4;stroke-dasharray:none;stroke-opacity:1"
       d="M 269,195 H 202"
       id="path1042-7" />
    <path
       style="fill:none;stroke:#000000;stroke-width:0.758601;stroke-linecap:butt;stroke-linejoin:miter;stroke-miterlimit:4;stroke-dasharray:none;stroke-opacity:1"
       d="M 268,208 H 207"
       id="path1046-8" />
    <path
       id="path835-6-4"
       style="fill:#00aa00;fill-opacity:1;stroke:#010000;stroke-width:0.264999"
       d="m 271,206 a 7.9567489,7.9567489 0 0 0 -7.9034,7.95662 7.9567489,7.9567489 0 0 0 7.95714,7.95713 7.9567489,7.9567489 0 0 0 7.95662,-7.95713 7.9567489,7.9567489 0 0 0 -7.95662,-7.95662 7.9567489,7.9567489 0 0 0 -0.0537,0 z m 0.0537,4.9568 a 3,3 0 0 1 2.99982,2.99982 3,3 0 0 1 -2.99982,3.00033 3,3 0 0 1 -3.00033,-3.00033 3,3 0 0 1 3.00033,-2.99982 z" />
    <text
       xml:space="preserve"
       style="font-size:4.23333px;line-height:1.25;font-family:sans-serif;-inkscape-font-specification:sans-serif;letter-spacing:0px;word-spacing:0px;stroke-width:0.264583"
       x="193.13519"
       y="185.42757"
       id="text1050-5"><tspan
         sodipodi:role="line"
         id="tspan1048-0"
         x="193.13519"
         y="185.42757"
         style="stroke-width:0.264583">MOTOR 1</tspan></text>
    <text
       xml:space="preserve"
       style="font-size:4.23333px;line-height:1.25;font-family:sans-serif;-inkscape-font-specification:sans-serif;letter-spacing:0px;word-spacing:0px;stroke-width:0.264583"
       x="359.97369"
       y="185.53586"
       id="text1050-1-3"><tspan
         sodipodi:role="line"
         id="tspan1048-2-6"
         x="359.97369"
         y="185.53586"
         style="stroke-width:0.264583">MOTOR 2</tspan></text>
    <rect
       style="fill:none;fill-opacity:1;stroke:#010000;stroke-width:1;stroke-miterlimit:4;stroke-dasharray:3, 3;stroke-dashoffset:0;stroke-opacity:1"
       id="rect1076-1"
       width="55"
       height="51"
       x="257"
       y="176" />
    <path
       id="path835-7-0"
       style="fill:#00aa00;fill-opacity:1;stroke:#010000;stroke-width:0.264999"
       d="m 297,206 a 7.9567489,7.9567489 0 0 0 -7.9034,7.95662 7.9567489,7.9567489 0 0 0 7.95714,7.95713 7.9567489,7.9567489 0 0 0 7.95662,-7.95713 7.9567489,7.9567489 0 0 0 -7.95662,-7.95662 7.9567489,7.9567489 0 0 0 -0.0537,0 z m 0.0537,4.9568 a 3,3 0 0 1 2.99982,2.99982 3,3 0 0 1 -2.99982,3.00033 3,3 0 0 1 -3.00033,-3.00033 3,3 0 0 1 3.00033,-2.99982 z" />
    <path
       id="path835-63"
       style="fill:#00aa00;fill-opacity:1;stroke:#010000;stroke-width:0.264999"
       d="m 271,180 a 7.9567489,7.9567489 0 0 0 -7.9034,7.95662 7.9567489,7.9567489 0 0 0 7.95714,7.95714 7.9567489,7.9567489 0 0 0 7.95662,-7.95714 7.9567489,7.9567489 0 0 0 -7.95662,-7.95662 7.9567489,7.9567489 0 0 0 -0.0537,0 z m 0.0537,4.9568 a 3,3 0 0 1 2.99982,2.99982 3,3 0 0 1 -2.99982,3.00033 3,3 0 0 1 -3.00033,-3.00033 3,3 0 0 1 3.00033,-2.99982 z" />
    <path
       id="path835-3-2"
       style="fill:#00aa00;fill-opacity:1;stroke:#010000;stroke-width:0.264999"
       d="m 297,180 a 7.9567489,7.9567489 0 0 0 -7.90339,7.95662 7.9567489,7.9567489 0 0 0 7.95713,7.95713 7.9567489,7.9567489 0 0 0 7.95662,-7.95713 7.9567489,7.9567489 0 0 0 -7.95662,-7.95662 7.9567489,7.9567489 0 0 0 -0.0537,0 z m 0.0537,4.9568 a 3,3 0 0 1 2.99982,2.99982 3,3 0 0 1 -2.99982,3.00033 3,3 0 0 1 -3.00033,-3.00033 3,3 0 0 1 3.00033,-2.99982 z" />
    <path
       id="path835-7-5-3-0"
       style="fill:#d40000;fill-opacity:1;stroke:#010000;stroke-width:0.264999"
       d="m 370.13776,193.57237 a 7.9567489,7.9567489 0 0 0 -7.9034,7.95662 7.9567489,7.9567489 0 0 0 7.95714,7.95713 7.9567489,7.9567489 0 0 0 7.95662,-7.95713 7.9567489,7.9567489 0 0 0 -7.95662,-7.95662 7.9567489,7.9567489 0 0 0 -0.0537,0 z m 0.0537,4.9568 a 3,3 0 0 1 2.99982,2.99982 3,3 0 0 1 -2.99982,3.00033 3,3 0 0 1 -3.00033,-3.00033 3,3 0 0 1 3.00033,-2.99982 z" />
    <path
       id="path835-7-5-3-5-6"
       style="fill:#aa0000;fill-opacity:1;stroke:#010000;stroke-width:0.264999"
       d="m 203.04228,193.57237 a 7.9567489,7.9567489 0 0 0 -7.90345,7.95662 7.9567489,7.9567489 0 0 0 7.95719,7.95713 7.9567489,7.9567489 0 0 0 7.95666,-7.95713 7.9567489,7.9567489 0 0 0 -7.95666,-7.95662 7.9567489,7.9567489 0 0 0 -0.0537,0 z m 0.0537,4.9568 a 3,3 0 0 1 2.99984,2.99982 3,3 0 0 1 -2.99984,3.00033 3,3 0 0 1 -3.00035,-3.00033 3,3 0 0 1 3.00035,-2.99982 z" />
    <path
       id="path835-7-5-1"
       style="fill:#ffcc00;fill-opacity:1;stroke:#010000;stroke-width:0.264999"
       d="m 283.9463,270.15577 a 7.9567489,7.9567489 0 0 0 -7.9034,7.95662 7.9567489,7.9567489 0 0 0 7.95714,7.95713 7.9567489,7.9567489 0 0 0 7.95662,-7.95713 7.9567489,7.9567489 0 0 0 -7.95662,-7.95662 7.9567489,7.9567489 0 0 0 -0.0537,0 z m 0.0537,4.9568 a 3,3 0 0 1 2.99982,2.99982 A 3,3 0 0 1 284,281.11272 3,3 0 0 1 280.99967,278.11239 3,3 0 0 1 284,275.11257 Z" />
    <circle
       style="fill:#ff0000;fill-opacity:1;stroke:#010000;stroke-width:0.264999"
       id="path1000-5"
       cx="279.4577"
       cy="122.12624"
       r="2" />
    <circle
       style="fill:#ff0000;fill-opacity:1;stroke:#010000;stroke-width:0.264999"
       id="path1000-9-5"
       cx="288.54053"
       cy="122.05123"
       r="2" />
    <path
       id="path3212-7-6-4"
       style="fill:none;fill-opacity:1;stroke:#010000;stroke-width:1.23333;stroke-miterlimit:4;stroke-dasharray:none;stroke-dashoffset:0;stroke-opacity:1"
       d="m 392.8287,182.71195 a 18.499912,-18.499912 0 0 1 18.50016,18.50016 18.499912,-18.499912 0 0 1 -12.41319,17.46974 9.4772767,-9.4772767 0 0 0 5.40483,3.42408 l 0.0444,0.12299 -16.08222,-2.89233 10.54613,-12.48141 0.0718,0.19896 a 9.4772767,-9.4772767 0 0 0 -1.98541,5.80377 9.4772767,-9.4772767 0 0 0 0.0848,1.26246 14.999999,-14.999999 0 0 0 10.8288,-14.40842 14.999999,-14.999999 0 0 0 -15.0001,-15.00012 z" />
    <path
       style="fill:#ffffff;fill-rule:evenodd;stroke:#ff0000;stroke-width:0.5;stroke-linecap:butt;stroke-linejoin:miter;stroke-miterlimit:4;stroke-dasharray:none;stroke-opacity:1;marker-end:url(#Arrow2Lend-02)"
       d="m 274.47083,143 v 28"
       id="path3326-7"
       inkscape:connector-type="polyline"
       inkscape:connector-curvature="0" />
    <path
       style="fill:#ffffff;fill-rule:evenodd;stroke:#ff0000;stroke-width:0.5;stroke-linecap:butt;stroke-linejoin:miter;stroke-miterlimit:4;stroke-dasharray:none;stroke-opacity:1;marker-end:url(#Arrow2Lend-0-7)"
       d="m 293.52917,235.94166 v 28"
       id="path3326-2-6"
       inkscape:connector-type="polyline"
       inkscape:connector-curvature="0" />
    <path
       style="fill:#ffffff;fill-rule:evenodd;stroke:#ff0000;stroke-width:0.5;stroke-linecap:butt;stroke-linejoin:miter;stroke-miterlimit:4;stroke-dasharray:none;stroke-opacity:1;marker-end:url(#Arrow2Lend-6-9)"
       d="m 274,235.94166 v 28"
       id="path3326-8-5"
       inkscape:connector-type="polyline"
       inkscape:connector-curvature="0" />
    <path
       style="fill:#ffffff;fill-rule:evenodd;stroke:#ff0000;stroke-width:0.5;stroke-linecap:butt;stroke-linejoin:miter;stroke-miterlimit:4;stroke-dasharray:none;stroke-opacity:1;marker-end:url(#Arrow2Lend-6-7-2)"
       d="m 293.52917,143 v 28"
       id="path3326-8-2-6"
       inkscape:connector-type="polyline"
       inkscape:connector-curvature="0" />
  </g>
</svg>
